<?xml version="1.0" encoding="utf-8"?>
<svg viewBox="0 0 675 500" xmlns="http://www.w3.org/2000/svg" xmlns:bx="https://boxy-svg.com">
  <defs>
    <bx:grid x="0" y="0" width="5.425" height="5.425"/>
  </defs>
  <path style="fill: rgb(241, 241, 241);" d="M 144.922 162.655 L 146.475 222.425 L 157.325 222.425 L 157.325 233.275 C 157.325 233.275 167.584 245.579 189.875 244.125 C 212.166 242.671 227.85 217 227.85 217 L 249.55 217 L 249.55 238.7 L 282.1 238.7 L 282.1 222.425 C 282.1 222.425 306.116 219.801 325.5 238.7 C 344.884 257.599 365.401 272.018 390.6 287.525 C 415.799 303.032 455.7 309.225 455.7 309.225 L 461.125 282.1 L 542.5 298.375 L 602.175 254.975 L 602.175 217 L 558.775 211.575 L 558.775 10.85 L 135.625 10.85 L 135.625 32.55 L 157.325 32.55 L 157.325 162.75 L 144.922 162.655 Z"/>
  <rect x="444.85" y="59.675" width="97.65" height="119.35" style="fill: rgb(216, 216, 216);"/>
  <rect x="352.625" y="86.8" width="75.95" height="92.225" style="fill: rgb(216, 216, 216);"/>
  <rect x="217" y="43.4" width="119.35" height="108.5" style="fill: rgb(216, 216, 216);"/>
  <path style="fill: rgb(216, 216, 216);" d="M 254.497 178.347 L 254.975 206.15 C 254.975 206.15 286.44 201.327 309.225 209.312 C 332.01 217.297 352.625 233.275 352.625 233.275 L 368.9 217 C 368.9 217 353.766 193.148 320.075 182.437 C 286.384 171.726 254.975 179.025 254.497 178.347 Z"/>
  <path style="fill: rgb(216, 216, 216);" d="M 401.529 249.429 L 385.175 265.825 C 385.175 265.825 397.889 282.462 412.3 287.525 C 426.711 292.588 444.85 292.95 444.85 292.95 L 450.275 271.25 L 401.529 249.429 Z"/>
  <path style="fill: rgb(216, 216, 216);" d="M 450.216 254.687 L 450.275 195.3 L 531.65 195.3 L 531.65 217 L 485.659 217 L 485.854 260.4 L 450.216 254.687 Z"/>
  <rect x="455.7" y="265.825" width="27.125" height="10.85" style="fill: rgb(216, 216, 216);"/>
  <path style="fill: rgb(216, 216, 216);" d="M 488.191 286.82 L 493.675 273.772 L 511.95 265.825 L 520.8 276.675 L 515.375 292.95 L 488.191 286.82 Z"/>
  <path style="fill: rgb(216, 216, 216);" d="M 534.735 247.092 L 547.925 260.4 L 564.2 249.429 L 564.2 227.85 L 542.5 227.85 L 534.735 247.092 Z"/>
  <ellipse style="fill: rgb(216, 216, 216); transform-box: fill-box; transform-origin: 50% 50%;" cx="511.27" cy="249.55" rx="13.923" ry="24.037" transform="matrix(0.663571, 0.748113, -0.748113, 0.663571, 0.776184, -8.184046)"/>
  <ellipse style="fill: rgb(216, 216, 216);" cx="401.45" cy="222.425" rx="21.7" ry="21.7"/>
  <ellipse style="fill: rgb(216, 216, 216);" cx="188.162" cy="207.527" rx="29.837" ry="31.502"/>
  <rect x="352.625" y="59.675" width="32.55" height="27.125" style="fill: rgb(216, 216, 216);"/>
  <rect x="396.025" y="59.675" width="32.55" height="27.125" style="fill: rgb(216, 216, 216);"/>
</svg>