<?xml version="1.0" encoding="utf-8"?>
<svg viewBox="0 0 675 500" xmlns="http://www.w3.org/2000/svg" xmlns:bx="https://boxy-svg.com">
  <defs>
    <bx:grid x="0" y="0" width="5.425" height="5.425"/>
  </defs>
  <path style="fill: rgb(241, 241, 241);" d="M 249.563 404.113 C 249.563 404.113 278.084 453.734 358.05 455.7 C 438.016 457.666 461.125 417.725 461.125 417.725 L 499.1 292.95 L 526.225 282.1 L 547.925 298.375 L 564.2 282.1 L 542.5 260.4 L 542.5 227.85 L 542.5 70.525 L 520.8 70.525 L 515.375 97.65 L 477.4 81.375 L 487.83 65.1 L 466.55 54.25 L 385.174 43.4 L 379.75 43.4 L 379.75 27.125 L 352.625 27.125 L 352.625 32.55 L 260.4 48.825 L 222.425 48.825 L 206.15 65.1 L 184.45 75.95 L 168.175 70.525 L 130.2 70.525 L 130.2 347.2 L 249.563 404.113 Z"/>
  <path style="fill: rgb(216, 216, 216);" d="M 32.573 342.186 L 32.55 466.55 L 108.5 466.55 L 108.5 423.15 L 113.925 423.15 L 113.925 466.55 L 222.425 466.55 L 222.425 417.725 L 265.825 417.725 L 265.825 325.5 L 271.25 320.075 L 260.4 314.65 L 265.825 309.225 L 249.55 298.375 L 244.125 303.8 L 244.125 314.65 L 249.55 320.075 L 249.55 325.5 L 211.575 320.075 L 211.575 314.65 L 206.15 309.225 L 206.15 303.8 L 146.475 303.8 L 146.475 341.775 L 130.2 341.775 L 130.2 358.05 L 108.5 358.05 L 108.5 341.775 L 32.573 342.186 Z"/>
  <path style="fill: rgb(216, 216, 216);" d="M 298.067 341.546 L 298.375 368.9 L 309.225 368.9 L 309.225 379.75 L 325.5 379.75 L 325.5 341.775 L 298.067 341.546 Z"/>
  <path style="fill: rgb(216, 216, 216);" d="M 433.406 331.18 L 423.15 363.475 L 439.425 368.9 L 428.575 390.6 L 434 396.025 L 434 401.45 L 444.85 406.875 L 444.85 412.3 L 461.125 417.725 L 466.55 412.3 L 482.825 417.725 L 515.375 287.525 L 499.1 282.1 L 499.1 276.675 L 482.825 271.25 L 477.4 282.1 L 471.975 282.1 L 450.275 336.35 L 433.406 331.18 Z"/>
  <path style="fill: rgb(216, 216, 216);" d="M 503.38 282.803 L 504.525 271.25 L 520.8 271.25 L 526.225 282.1 L 520.8 292.95 L 515.375 292.95 L 515.375 287.525 L 503.38 282.803 Z"/>
  <path style="fill: rgb(216, 216, 216);" d="M 532.751 254.296 L 542.5 265.825 L 547.925 260.4 L 553.35 233.275 L 542.5 222.425 L 537.075 222.425 L 531.65 233.275 L 537.075 244.125 L 532.751 254.296 Z"/>
  <path style="fill: rgb(216, 216, 216);" d="M 523.249 223.196 L 537.075 217 L 537.075 206.15 L 515.375 206.15 L 509.95 200.725 L 509.95 184.45 L 520.8 184.45 L 520.8 86.8 L 493.675 86.8 L 482.825 75.95 L 466.55 97.65 L 466.55 179.025 L 471.975 179.025 L 471.975 200.725 L 493.675 200.725 L 493.675 222.425 L 515.375 217 L 523.249 223.196 Z"/>
  <path style="fill: rgb(216, 216, 216);" d="M 487.83 234.139 L 482.825 244.125 L 482.825 254.975 L 455.7 271.25 L 450.275 265.825 L 439.425 271.25 L 423.15 249.55 L 401.45 233.275 L 379.75 233.275 L 379.75 195.3 L 401.45 189.875 L 423.15 179.025 L 487.83 234.139 Z"/>
  <path style="fill: rgb(216, 216, 216);" d="M 140.844 288.274 L 141.05 265.825 L 157.325 265.825 L 157.325 206.15 L 211.575 206.15 L 211.575 287.525 L 140.844 288.274 Z"/>
  <path style="fill: rgb(216, 216, 216);" d="M 422.698 108.187 L 396.025 97.65 L 379.75 92.225 L 379.75 43.4 L 461.125 43.4 L 471.975 54.25 L 422.698 108.187 Z"/>
  <path style="fill: rgb(216, 216, 216);" d="M 352.895 86.978 L 352.625 32.55 L 282.1 32.55 L 254.975 27.125 L 222.425 48.825 L 265.825 108.5 L 309.225 108.5 L 309.225 86.8 L 352.895 86.978 Z"/>
  <ellipse style="fill: rgb(216, 216, 216);" cx="217" cy="135.625" rx="16.275" ry="16.275"/>
  <path style="fill: rgb(216, 216, 216);" d="M 228.054 92.884 L 222.425 108.5 L 211.575 108.5 L 211.575 162.75 L 222.425 162.75 L 227.85 173.6 L 206.15 184.45 L 200.725 179.025 L 173.6 179.025 L 168.175 173.6 L 168.175 70.525 L 195.3 70.525 L 206.15 65.1 L 228.054 92.884 Z"/>
  <path style="fill: rgb(216, 216, 216);" d="M 286.85 130.471 L 287.525 157.325 L 320.075 157.325 L 320.075 130.2 L 286.85 130.471 Z"/>
  <path style="fill: rgb(216, 216, 216);" d="M 303.495 190.072 L 303.8 173.6 L 265.825 173.6 L 260.4 184.45 L 271.25 189.875 L 303.495 190.072 Z"/>
  <path style="fill: rgb(216, 216, 216);" d="M 314.771 173.964 L 314.65 211.575 L 298.375 217 L 292.95 233.275 L 298.067 244.125 L 298.067 260.4 L 287.525 287.525 L 309.225 298.375 L 314.65 282.1 L 320.075 254.975 C 320.075 254.975 332.054 250.568 336.35 244.125 C 340.646 237.682 341.775 217 341.775 217 L 352.625 211.575 L 347.2 195.3 L 314.771 173.964 Z"/>
  <ellipse style="fill: rgb(216, 216, 216);" cx="366.187" cy="316.248" rx="24.412" ry="24.298"/>
  <ellipse style="fill: rgb(216, 216, 216);" cx="366.187" cy="143.762" rx="18.987" ry="18.987"/>
</svg>